<?xml version="1.0" encoding="UTF-8" standalone="no"?>
<!DOCTYPE svg PUBLIC "-//W3C//DTD SVG 1.1//EN"
 "http://www.w3.org/Graphics/SVG/1.1/DTD/svg11.dtd">
<!-- Generated by graphviz version 2.43.0 (0)
 -->
<!-- Title: G Pages: 1 -->
<svg width="749pt" height="520pt"
 viewBox="0.00 0.00 748.87 520.46" xmlns="http://www.w3.org/2000/svg" xmlns:xlink="http://www.w3.org/1999/xlink">
<g id="graph0" class="graph" transform="scale(1 1) rotate(0) translate(4 516.46)">
<title>G</title>
<polygon fill="white" stroke="transparent" points="-4,4 -4,-516.46 744.87,-516.46 744.87,4 -4,4"/>
<text text-anchor="middle" x="370.43" y="-492.46" font-family="DejaVu Sans" font-size="20.00">Vendor Use Case Diagram (Approved Vendor)</text>
<g id="clust1" class="cluster">
<title>cluster_sys</title>
<path fill="none" stroke="#444444" d="M142,-129.46C142,-129.46 720.87,-129.46 720.87,-129.46 726.87,-129.46 732.87,-135.46 732.87,-141.46 732.87,-141.46 732.87,-462.46 732.87,-462.46 732.87,-468.46 726.87,-474.46 720.87,-474.46 720.87,-474.46 142,-474.46 142,-474.46 136,-474.46 130,-468.46 130,-462.46 130,-462.46 130,-141.46 130,-141.46 130,-135.46 136,-129.46 142,-129.46"/>
<text text-anchor="middle" x="431.43" y="-459.26" font-family="DejaVu Sans" font-size="14.00">MarketHub&#45;MVC</text>
</g>
<!-- Vendor -->
<g id="node1" class="node">
<title>Vendor</title>
<path fill="#fff3cd" stroke="black" d="M89,-227.46C89,-227.46 12,-227.46 12,-227.46 6,-227.46 0,-221.46 0,-215.46 0,-215.46 0,-203.46 0,-203.46 0,-197.46 6,-191.46 12,-191.46 12,-191.46 89,-191.46 89,-191.46 95,-191.46 101,-197.46 101,-203.46 101,-203.46 101,-215.46 101,-215.46 101,-221.46 95,-227.46 89,-227.46"/>
<text text-anchor="middle" x="50.5" y="-212.66" font-family="DejaVu Sans" font-size="11.00">«actor»</text>
<text text-anchor="middle" x="50.5" y="-200.66" font-family="DejaVu Sans" font-size="11.00">Vendor</text>
</g>
<!-- UC14 -->
<g id="node2" class="node">
<title>UC14</title>
<ellipse fill="#e3f2fd" stroke="black" cx="261.88" cy="-425.46" rx="101.05" ry="18"/>
<text text-anchor="middle" x="261.88" y="-422.66" font-family="DejaVu Sans" font-size="11.00">UC&#45;14 Manage Store Profile</text>
</g>
<!-- Vendor&#45;&gt;UC14 -->
<g id="edge1" class="edge">
<title>Vendor&#45;&gt;UC14</title>
<path fill="none" stroke="black" d="M53.45,-227.56C58.55,-265.55 75.89,-353.78 130,-398.46 141.18,-407.7 154.7,-414.03 168.76,-418.33"/>
</g>
<!-- UC15 -->
<g id="node3" class="node">
<title>UC15</title>
<ellipse fill="#e3f2fd" stroke="black" cx="261.88" cy="-371.46" rx="116.12" ry="18"/>
<text text-anchor="middle" x="261.88" y="-368.66" font-family="DejaVu Sans" font-size="11.00">UC&#45;15 Manage Products (CRUD)</text>
</g>
<!-- Vendor&#45;&gt;UC15 -->
<g id="edge2" class="edge">
<title>Vendor&#45;&gt;UC15</title>
<path fill="none" stroke="black" d="M56.72,-227.62C66.18,-257.09 89.07,-315.01 130,-344.46 140.36,-351.92 152.3,-357.41 164.68,-361.45"/>
</g>
<!-- UC16 -->
<g id="node4" class="node">
<title>UC16</title>
<ellipse fill="#e3f2fd" stroke="black" cx="608.81" cy="-357.46" rx="111.7" ry="18"/>
<text text-anchor="middle" x="608.81" y="-354.66" font-family="DejaVu Sans" font-size="11.00">UC&#45;16 Manage Product Images</text>
</g>
<!-- Vendor&#45;&gt;UC16 -->
<g id="edge3" class="edge">
<title>Vendor&#45;&gt;UC16</title>
<path fill="none" stroke="black" d="M62.69,-191.17C75.95,-171.43 100.07,-141.14 130,-128.46 234.67,-84.14 285.11,-75.63 385.75,-128.46 447.42,-160.84 444.6,-194.67 474.75,-257.46 486.8,-282.56 473.49,-297.36 492.75,-317.46 504.31,-329.53 519.69,-337.96 535.43,-343.84"/>
</g>
<!-- UC17 -->
<g id="node5" class="node">
<title>UC17</title>
<ellipse fill="#e3f2fd" stroke="black" cx="608.81" cy="-290.46" rx="92.01" ry="18"/>
<text text-anchor="middle" x="608.81" y="-287.66" font-family="DejaVu Sans" font-size="11.00">UC&#45;17 Manage Inventory</text>
</g>
<!-- Vendor&#45;&gt;UC17 -->
<g id="edge4" class="edge">
<title>Vendor&#45;&gt;UC17</title>
<path fill="none" stroke="black" d="M56.17,-191.15C64.07,-164.53 82.83,-116.08 119,-95.46 187.68,-56.31 415.42,-43.22 474.75,-95.46 522.17,-137.21 455.56,-185.4 492.75,-236.46 506.72,-255.64 529.24,-268.23 550.68,-276.39"/>
</g>
<!-- UC18 -->
<g id="node6" class="node">
<title>UC18</title>
<ellipse fill="#e3f2fd" stroke="black" cx="261.88" cy="-317.46" rx="102.46" ry="18"/>
<text text-anchor="middle" x="261.88" y="-314.66" font-family="DejaVu Sans" font-size="11.00">UC&#45;18 View My Order Items</text>
</g>
<!-- Vendor&#45;&gt;UC18 -->
<g id="edge5" class="edge">
<title>Vendor&#45;&gt;UC18</title>
<path fill="none" stroke="black" d="M63.98,-227.68C77.85,-246.46 102.02,-275.1 130,-290.46 144.03,-298.17 160.01,-303.68 175.86,-307.63"/>
</g>
<!-- UC19 -->
<g id="node7" class="node">
<title>UC19</title>
<ellipse fill="#e3f2fd" stroke="black" cx="608.81" cy="-209.46" rx="116.12" ry="18"/>
<text text-anchor="middle" x="608.81" y="-206.66" font-family="DejaVu Sans" font-size="11.00">UC&#45;19 Update Fulfillment Status</text>
</g>
<!-- Vendor&#45;&gt;UC19 -->
<g id="edge6" class="edge">
<title>Vendor&#45;&gt;UC19</title>
<path fill="none" stroke="black" d="M53.33,-191.38C57.79,-158.07 72.52,-87.68 119,-57.46 251.56,28.71 330.76,7.86 474.75,-57.46 536.39,-85.43 580.72,-157.62 598.8,-191.46"/>
</g>
<!-- UC20 -->
<g id="node8" class="node">
<title>UC20</title>
<ellipse fill="#e3f2fd" stroke="black" cx="261.88" cy="-263.46" rx="101.75" ry="18"/>
<text text-anchor="middle" x="261.88" y="-260.66" font-family="DejaVu Sans" font-size="11.00">UC&#45;20 View Sales Summary</text>
</g>
<!-- Vendor&#45;&gt;UC20 -->
<g id="edge7" class="edge">
<title>Vendor&#45;&gt;UC20</title>
<path fill="none" stroke="black" d="M101.03,-227.57C110.58,-230.76 120.55,-233.87 130,-236.46 149.35,-241.76 170.57,-246.57 190.18,-250.6"/>
</g>
<!-- UC21 -->
<g id="node9" class="node">
<title>UC21</title>
<ellipse fill="#e3f2fd" stroke="black" cx="261.88" cy="-209.46" rx="123.75" ry="18"/>
<text text-anchor="middle" x="261.88" y="-206.66" font-family="DejaVu Sans" font-size="11.00">UC&#45;21 View Commission Summary</text>
</g>
<!-- Vendor&#45;&gt;UC21 -->
<g id="edge8" class="edge">
<title>Vendor&#45;&gt;UC21</title>
<path fill="none" stroke="black" d="M101.12,-209.46C112.37,-209.46 124.8,-209.46 137.61,-209.46"/>
</g>
<!-- UC22 -->
<g id="node10" class="node">
<title>UC22</title>
<ellipse fill="#e3f2fd" stroke="black" cx="261.88" cy="-155.46" rx="93.42" ry="18"/>
<text text-anchor="middle" x="261.88" y="-152.66" font-family="DejaVu Sans" font-size="11.00">UC&#45;22 Vendor Dashboard</text>
</g>
<!-- Vendor&#45;&gt;UC22 -->
<g id="edge9" class="edge">
<title>Vendor&#45;&gt;UC22</title>
<path fill="none" stroke="black" d="M101.03,-191.35C110.58,-188.17 120.55,-185.05 130,-182.46 150.36,-176.89 172.78,-171.86 193.23,-167.7"/>
</g>
<!-- UC15&#45;&gt;UC16 -->
<g id="edge11" class="edge">
<title>UC15&#45;&gt;UC16</title>
<path fill="none" stroke="black" stroke-dasharray="5,2" d="M374.39,-366.94C411.27,-365.44 452.42,-363.77 489.78,-362.25"/>
<polygon fill="black" stroke="black" points="490.36,-365.73 500.21,-361.83 490.07,-358.74 490.36,-365.73"/>
<text text-anchor="middle" x="439.25" y="-368.26" font-family="DejaVu Sans" font-size="9.00">«include»</text>
</g>
<!-- UC15&#45;&gt;UC17 -->
<g id="edge12" class="edge">
<title>UC15&#45;&gt;UC17</title>
<path fill="none" stroke="black" stroke-dasharray="5,2" d="M330.54,-356.88C348.5,-352.93 367.88,-348.6 385.75,-344.46 438.22,-332.32 497.47,-317.87 541.57,-306.98"/>
<polygon fill="black" stroke="black" points="542.44,-310.37 551.3,-304.57 540.76,-303.57 542.44,-310.37"/>
<text text-anchor="middle" x="439.25" y="-342.26" font-family="DejaVu Sans" font-size="9.00">«include stock»</text>
</g>
<!-- UC18&#45;&gt;UC19 -->
<g id="edge10" class="edge">
<title>UC18&#45;&gt;UC19</title>
<path fill="none" stroke="black" stroke-dasharray="5,2" d="M341.38,-301.85C356.21,-298.44 371.52,-294.6 385.75,-290.46 449.98,-271.78 522.44,-244.05 566.61,-226.37"/>
<polygon fill="black" stroke="black" points="340.19,-298.53 331.21,-304.14 341.73,-305.36 340.19,-298.53"/>
<text text-anchor="middle" x="439.25" y="-287.26" font-family="DejaVu Sans" font-size="9.00">«extend»</text>
</g>
</g>
</svg>
