<?xml version="1.0" encoding="UTF-8" standalone="no"?>
<!DOCTYPE svg PUBLIC "-//W3C//DTD SVG 1.1//EN"
 "http://www.w3.org/Graphics/SVG/1.1/DTD/svg11.dtd">
<!-- Generated by graphviz version 2.43.0 (0)
 -->
<!-- Title: G Pages: 1 -->
<svg width="999pt" height="582pt"
 viewBox="0.00 0.00 998.53 582.36" xmlns="http://www.w3.org/2000/svg" xmlns:xlink="http://www.w3.org/1999/xlink">
<g id="graph0" class="graph" transform="scale(1 1) rotate(0) translate(4 578.36)">
<title>G</title>
<polygon fill="white" stroke="transparent" points="-4,4 -4,-578.36 994.53,-578.36 994.53,4 -4,4"/>
<text text-anchor="middle" x="495.27" y="-552.76" font-family="DejaVu Sans" font-size="22.00">Vendor Isolation &#45; Authorization Flow</text>
<!-- r -->
<g id="node1" class="node">
<title>r</title>
<ellipse fill="#c8e6c9" stroke="black" cx="138.73" cy="-362.98" rx="138.97" ry="21.5"/>
<text text-anchor="middle" x="138.73" y="-359.58" font-family="DejaVu Sans" font-size="13.00">POST /Vendor/Products/Edit/17</text>
</g>
<!-- a -->
<g id="node2" class="node">
<title>a</title>
<polygon fill="#e3f2fd" stroke="black" points="376.33,-407.98 286.33,-362.98 376.33,-317.98 466.33,-362.98 376.33,-407.98"/>
<text text-anchor="middle" x="376.33" y="-359.88" font-family="DejaVu Sans" font-size="12.00">Authenticated?</text>
</g>
<!-- r&#45;&gt;a -->
<g id="edge1" class="edge">
<title>r&#45;&gt;a</title>
<path fill="none" stroke="black" d="M277.63,-362.98C277.72,-362.98 277.81,-362.98 277.9,-362.98"/>
<polygon fill="black" stroke="black" points="278.11,-365.78 286.11,-362.98 278.11,-360.18 278.11,-365.78"/>
</g>
<!-- p -->
<g id="node3" class="node">
<title>p</title>
<polygon fill="#e3f2fd" stroke="black" points="613.93,-407.98 477.53,-362.98 613.93,-317.98 750.34,-362.98 613.93,-407.98"/>
<text text-anchor="middle" x="613.93" y="-372.88" font-family="DejaVu Sans" font-size="12.00">Policy ApprovedVendor:</text>
<text text-anchor="middle" x="613.93" y="-359.88" font-family="DejaVu Sans" font-size="12.00">role Vendor AND</text>
<text text-anchor="middle" x="613.93" y="-346.88" font-family="DejaVu Sans" font-size="12.00">Status = Approved?</text>
</g>
<!-- a&#45;&gt;p -->
<g id="edge2" class="edge">
<title>a&#45;&gt;p</title>
<path fill="none" stroke="black" d="M466.5,-362.98C467.38,-362.98 468.27,-362.98 469.16,-362.98"/>
<polygon fill="black" stroke="black" points="469.23,-365.78 477.23,-362.98 469.23,-360.18 469.23,-365.78"/>
<text text-anchor="middle" x="469.08" y="-354.18" font-family="DejaVu Sans" font-size="11.00">Yes</text>
</g>
<!-- r1 -->
<g id="node8" class="node">
<title>r1</title>
<path fill="#fde0dc" stroke="black" d="M450.83,-542.36C450.83,-542.36 301.83,-542.36 301.83,-542.36 295.83,-542.36 289.83,-536.36 289.83,-530.36 289.83,-530.36 289.83,-489.36 289.83,-489.36 289.83,-483.36 295.83,-477.36 301.83,-477.36 301.83,-477.36 450.83,-477.36 450.83,-477.36 456.83,-477.36 462.83,-483.36 462.83,-489.36 462.83,-489.36 462.83,-530.36 462.83,-530.36 462.83,-536.36 456.83,-542.36 450.83,-542.36"/>
<text text-anchor="middle" x="376.33" y="-513.46" font-family="DejaVu Sans" font-size="13.00">Challenge:</text>
<text text-anchor="middle" x="376.33" y="-499.46" font-family="DejaVu Sans" font-size="13.00">redirect to Login</text>
</g>
<!-- a&#45;&gt;r1 -->
<g id="edge3" class="edge">
<title>a&#45;&gt;r1</title>
<path fill="none" stroke="black" d="M376.33,-408.25C376.33,-427.63 376.33,-450.1 376.33,-468.98"/>
<polygon fill="black" stroke="black" points="373.53,-469.1 376.33,-477.1 379.13,-469.1 373.53,-469.1"/>
<text text-anchor="middle" x="368.33" y="-445.9" font-family="DejaVu Sans" font-size="11.00">No</text>
</g>
<!-- v -->
<g id="node4" class="node">
<title>v</title>
<path fill="#e3f2fd" stroke="black" d="M928.53,-395.48C928.53,-395.48 774.53,-395.48 774.53,-395.48 768.53,-395.48 762.53,-389.48 762.53,-383.48 762.53,-383.48 762.53,-342.48 762.53,-342.48 762.53,-336.48 768.53,-330.48 774.53,-330.48 774.53,-330.48 928.53,-330.48 928.53,-330.48 934.53,-330.48 940.53,-336.48 940.53,-342.48 940.53,-342.48 940.53,-383.48 940.53,-383.48 940.53,-389.48 934.53,-395.48 928.53,-395.48"/>
<text text-anchor="middle" x="851.53" y="-366.58" font-family="DejaVu Sans" font-size="13.00">ICurrentVendorService</text>
<text text-anchor="middle" x="851.53" y="-352.58" font-family="DejaVu Sans" font-size="13.00">resolves VendorProfileId</text>
</g>
<!-- p&#45;&gt;v -->
<g id="edge4" class="edge">
<title>p&#45;&gt;v</title>
<path fill="none" stroke="black" d="M750.43,-362.98C751.69,-362.98 752.94,-362.98 754.2,-362.98"/>
<polygon fill="black" stroke="black" points="754.42,-365.78 762.42,-362.98 754.42,-360.18 754.42,-365.78"/>
<text text-anchor="middle" x="763.64" y="-366.18" font-family="DejaVu Sans" font-size="11.00">Yes</text>
</g>
<!-- r2 -->
<g id="node9" class="node">
<title>r2</title>
<path fill="#fde0dc" stroke="black" d="M688.43,-542.36C688.43,-542.36 539.43,-542.36 539.43,-542.36 533.43,-542.36 527.43,-536.36 527.43,-530.36 527.43,-530.36 527.43,-489.36 527.43,-489.36 527.43,-483.36 533.43,-477.36 539.43,-477.36 539.43,-477.36 688.43,-477.36 688.43,-477.36 694.43,-477.36 700.43,-483.36 700.43,-489.36 700.43,-489.36 700.43,-530.36 700.43,-530.36 700.43,-536.36 694.43,-542.36 688.43,-542.36"/>
<text text-anchor="middle" x="613.93" y="-506.46" font-family="DejaVu Sans" font-size="13.00">403 Forbidden</text>
</g>
<!-- p&#45;&gt;r2 -->
<g id="edge5" class="edge">
<title>p&#45;&gt;r2</title>
<path fill="none" stroke="black" d="M613.93,-408.25C613.93,-427.63 613.93,-450.1 613.93,-468.98"/>
<polygon fill="black" stroke="black" points="611.13,-469.1 613.93,-477.1 616.73,-469.1 611.13,-469.1"/>
<text text-anchor="middle" x="605.93" y="-445.9" font-family="DejaVu Sans" font-size="11.00">No</text>
</g>
<!-- q -->
<g id="node5" class="node">
<title>q</title>
<path fill="#e3f2fd" stroke="black" d="M978.53,-236.36C978.53,-236.36 724.53,-236.36 724.53,-236.36 718.53,-236.36 712.53,-230.36 712.53,-224.36 712.53,-224.36 712.53,-183.36 712.53,-183.36 712.53,-177.36 718.53,-171.36 724.53,-171.36 724.53,-171.36 978.53,-171.36 978.53,-171.36 984.53,-171.36 990.53,-177.36 990.53,-183.36 990.53,-183.36 990.53,-224.36 990.53,-224.36 990.53,-230.36 984.53,-236.36 978.53,-236.36"/>
<text text-anchor="middle" x="851.53" y="-207.46" font-family="DejaVu Sans" font-size="13.00">Query Products WHERE Id = 17</text>
<text text-anchor="middle" x="851.53" y="-193.46" font-family="DejaVu Sans" font-size="13.00">AND VendorProfileId = currentVendorId</text>
</g>
<!-- v&#45;&gt;q -->
<g id="edge6" class="edge">
<title>v&#45;&gt;q</title>
<path fill="none" stroke="black" d="M851.53,-330.4C851.53,-305.51 851.53,-271.07 851.53,-244.41"/>
<polygon fill="black" stroke="black" points="854.33,-244.4 851.53,-236.4 848.73,-244.4 854.33,-244.4"/>
</g>
<!-- f -->
<g id="node6" class="node">
<title>f</title>
<polygon fill="#e3f2fd" stroke="black" points="613.93,-248.86 523.93,-203.86 613.93,-158.86 703.93,-203.86 613.93,-248.86"/>
<text text-anchor="middle" x="613.93" y="-200.76" font-family="DejaVu Sans" font-size="12.00">Row found?</text>
</g>
<!-- q&#45;&gt;f -->
<g id="edge7" class="edge">
<title>q&#45;&gt;f</title>
<path fill="none" stroke="black" d="M712.29,-203.86C712.2,-203.86 712.12,-203.86 712.03,-203.86"/>
<polygon fill="black" stroke="black" points="712.14,-201.06 704.14,-203.86 712.14,-206.66 712.14,-201.06"/>
</g>
<!-- ok -->
<g id="node7" class="node">
<title>ok</title>
<ellipse fill="#e0e0e0" stroke="black" cx="376.33" cy="-203.86" rx="119.5" ry="28.07"/>
<text text-anchor="middle" x="376.33" y="-207.46" font-family="DejaVu Sans" font-size="13.00">Bind ONLY allowed</text>
<text text-anchor="middle" x="376.33" y="-193.46" font-family="DejaVu Sans" font-size="13.00">ViewModel fields, save</text>
</g>
<!-- f&#45;&gt;ok -->
<g id="edge8" class="edge">
<title>f&#45;&gt;ok</title>
<path fill="none" stroke="black" d="M523.77,-203.86C517.4,-203.86 510.91,-203.86 504.39,-203.86"/>
<polygon fill="black" stroke="black" points="504.11,-201.06 496.11,-203.86 504.11,-206.66 504.11,-201.06"/>
<text text-anchor="middle" x="509.88" y="-195.06" font-family="DejaVu Sans" font-size="11.00">Yes</text>
</g>
<!-- r3 -->
<g id="node10" class="node">
<title>r3</title>
<path fill="#fde0dc" stroke="black" d="M688.43,-65C688.43,-65 539.43,-65 539.43,-65 533.43,-65 527.43,-59 527.43,-53 527.43,-53 527.43,-12 527.43,-12 527.43,-6 533.43,0 539.43,0 539.43,0 688.43,0 688.43,0 694.43,0 700.43,-6 700.43,-12 700.43,-12 700.43,-53 700.43,-53 700.43,-59 694.43,-65 688.43,-65"/>
<text text-anchor="middle" x="613.93" y="-43.1" font-family="DejaVu Sans" font-size="13.00">404 Not Found</text>
<text text-anchor="middle" x="613.93" y="-29.1" font-family="DejaVu Sans" font-size="13.00">(same for missing and</text>
<text text-anchor="middle" x="613.93" y="-15.1" font-family="DejaVu Sans" font-size="13.00">other vendor product)</text>
</g>
<!-- f&#45;&gt;r3 -->
<g id="edge9" class="edge">
<title>f&#45;&gt;r3</title>
<path fill="none" stroke="black" d="M613.93,-158.84C613.93,-132.26 613.93,-98.89 613.93,-73.12"/>
<polygon fill="black" stroke="black" points="616.73,-73.04 613.93,-65.04 611.13,-73.04 616.73,-73.04"/>
<text text-anchor="middle" x="605.93" y="-115.39" font-family="DejaVu Sans" font-size="11.00">No</text>
</g>
</g>
</svg>
