<?xml version="1.0" encoding="UTF-8" standalone="no"?>
<!DOCTYPE svg PUBLIC "-//W3C//DTD SVG 1.1//EN"
 "http://www.w3.org/Graphics/SVG/1.1/DTD/svg11.dtd">
<!-- Generated by graphviz version 2.42.4 (0)
 -->
<!-- Title: G Pages: 1 -->
<svg width="971pt" height="127pt"
 viewBox="0.00 0.00 971.20 127.38" xmlns="http://www.w3.org/2000/svg" xmlns:xlink="http://www.w3.org/1999/xlink">
<g id="graph0" class="graph" transform="scale(1 1) rotate(0) translate(21.6 105.78)">
<title>G</title>
<polygon fill="white" stroke="transparent" points="-21.6,21.6 -21.6,-105.78 949.6,-105.78 949.6,21.6 -21.6,21.6"/>
<!-- Admin -->
<g id="node1" class="node">
<title>Admin</title>
<path fill="#eef6f6" stroke="black" d="M44,-49.18C44,-49.18 12,-49.18 12,-49.18 6,-49.18 0,-43.18 0,-37.18 0,-37.18 0,-25.18 0,-25.18 0,-19.18 6,-13.18 12,-13.18 12,-13.18 44,-13.18 44,-13.18 50,-13.18 56,-19.18 56,-25.18 56,-25.18 56,-37.18 56,-37.18 56,-43.18 50,-49.18 44,-49.18"/>
<text text-anchor="middle" x="28" y="-27.48" font-family="Arial" font-size="14.00">Admin</text>
</g>
<!-- API -->
<g id="node2" class="node">
<title>API</title>
<path fill="#eef6f6" stroke="black" d="M316,-49.18C316,-49.18 286,-49.18 286,-49.18 280,-49.18 274,-43.18 274,-37.18 274,-37.18 274,-25.18 274,-25.18 274,-19.18 280,-13.18 286,-13.18 286,-13.18 316,-13.18 316,-13.18 322,-13.18 328,-19.18 328,-25.18 328,-25.18 328,-37.18 328,-37.18 328,-43.18 322,-49.18 316,-49.18"/>
<text text-anchor="middle" x="301" y="-27.48" font-family="Arial" font-size="14.00">API</text>
</g>
<!-- Admin&#45;&gt;API -->
<g id="edge1" class="edge">
<title>Admin&#45;&gt;API</title>
<path fill="none" stroke="black" d="M56.23,-31.18C105.3,-31.18 208.6,-31.18 263.65,-31.18"/>
<polygon fill="black" stroke="black" points="263.99,-34.68 273.99,-31.18 263.99,-27.68 263.99,-34.68"/>
<text text-anchor="middle" x="165" y="-34.98" font-family="Times,serif" font-size="14.00">GET dashboard summary</text>
</g>
<!-- API&#45;&gt;Admin -->
<g id="edge7" class="edge">
<title>API&#45;&gt;Admin</title>
<path fill="none" stroke="black" d="M273.58,-17.72C267.91,-15.42 261.87,-13.39 256,-12.18 176.79,4.19 153.28,3.87 74,-12.18 71.19,-12.75 68.35,-13.5 65.52,-14.37"/>
<polygon fill="black" stroke="black" points="64.31,-11.08 56.05,-17.72 66.64,-17.68 64.31,-11.08"/>
<text text-anchor="middle" x="165" y="-15.98" font-family="Times,serif" font-size="14.00">200 JSON</text>
</g>
<!-- Auth -->
<g id="node3" class="node">
<title>Auth</title>
<path fill="#eef6f6" stroke="black" d="M498.5,-84.18C498.5,-84.18 468.5,-84.18 468.5,-84.18 462.5,-84.18 456.5,-78.18 456.5,-72.18 456.5,-72.18 456.5,-60.18 456.5,-60.18 456.5,-54.18 462.5,-48.18 468.5,-48.18 468.5,-48.18 498.5,-48.18 498.5,-48.18 504.5,-48.18 510.5,-54.18 510.5,-60.18 510.5,-60.18 510.5,-72.18 510.5,-72.18 510.5,-78.18 504.5,-84.18 498.5,-84.18"/>
<text text-anchor="middle" x="483.5" y="-62.48" font-family="Arial" font-size="14.00">Auth</text>
</g>
<!-- API&#45;&gt;Auth -->
<g id="edge2" class="edge">
<title>API&#45;&gt;Auth</title>
<path fill="none" stroke="black" d="M328.25,-36.27C359.26,-42.28 411.05,-52.32 445.97,-59.1"/>
<polygon fill="black" stroke="black" points="445.74,-62.62 456.22,-61.08 447.07,-55.74 445.74,-62.62"/>
<text text-anchor="middle" x="380" y="-55.98" font-family="Times,serif" font-size="14.00">authorize</text>
</g>
<!-- Analytics -->
<g id="node4" class="node">
<title>Analytics</title>
<path fill="#eef6f6" stroke="black" d="M707,-49.18C707,-49.18 660,-49.18 660,-49.18 654,-49.18 648,-43.18 648,-37.18 648,-37.18 648,-25.18 648,-25.18 648,-19.18 654,-13.18 660,-13.18 660,-13.18 707,-13.18 707,-13.18 713,-13.18 719,-19.18 719,-25.18 719,-25.18 719,-37.18 719,-37.18 719,-43.18 713,-49.18 707,-49.18"/>
<text text-anchor="middle" x="683.5" y="-27.48" font-family="Arial" font-size="14.00">Analytics</text>
</g>
<!-- Auth&#45;&gt;Analytics -->
<g id="edge3" class="edge">
<title>Auth&#45;&gt;Analytics</title>
<path fill="none" stroke="black" d="M510.79,-61.53C543.14,-55.81 598.58,-46.01 637.69,-39.1"/>
<polygon fill="black" stroke="black" points="638.52,-42.51 647.76,-37.32 637.3,-35.61 638.52,-42.51"/>
<text text-anchor="middle" x="591.5" y="-56.98" font-family="Times,serif" font-size="14.00">authorized</text>
</g>
<!-- Analytics&#45;&gt;API -->
<g id="edge6" class="edge">
<title>Analytics&#45;&gt;API</title>
<path fill="none" stroke="black" d="M647.95,-29.08C618.06,-27.37 573.7,-25.1 535,-24.18 489.24,-23.09 477.76,-22.95 432,-24.18 400.43,-25.03 364.58,-27.04 338.54,-28.68"/>
<polygon fill="black" stroke="black" points="338.13,-25.2 328.38,-29.34 338.58,-32.19 338.13,-25.2"/>
<text text-anchor="middle" x="483.5" y="-27.98" font-family="Times,serif" font-size="14.00">summary DTO</text>
</g>
<!-- DB -->
<g id="node5" class="node">
<title>DB</title>
<path fill="#eef6f6" stroke="black" d="M916,-49.18C916,-49.18 886,-49.18 886,-49.18 880,-49.18 874,-43.18 874,-37.18 874,-37.18 874,-25.18 874,-25.18 874,-19.18 880,-13.18 886,-13.18 886,-13.18 916,-13.18 916,-13.18 922,-13.18 928,-19.18 928,-25.18 928,-25.18 928,-37.18 928,-37.18 928,-43.18 922,-49.18 916,-49.18"/>
<text text-anchor="middle" x="901" y="-27.48" font-family="Arial" font-size="14.00">DB</text>
</g>
<!-- Analytics&#45;&gt;DB -->
<g id="edge4" class="edge">
<title>Analytics&#45;&gt;DB</title>
<path fill="none" stroke="black" d="M719.12,-31.18C758.77,-31.18 823.43,-31.18 863.74,-31.18"/>
<polygon fill="black" stroke="black" points="863.93,-34.68 873.93,-31.18 863.93,-27.68 863.93,-34.68"/>
<text text-anchor="middle" x="796.5" y="-34.98" font-family="Times,serif" font-size="14.00">aggregate query</text>
</g>
<!-- DB&#45;&gt;Analytics -->
<g id="edge5" class="edge">
<title>DB&#45;&gt;Analytics</title>
<path fill="none" stroke="black" d="M873.58,-17.72C867.91,-15.42 861.87,-13.39 856,-12.18 804.21,-1.47 789.09,-3.04 737,-12.18 734.32,-12.65 731.59,-13.25 728.86,-13.93"/>
<polygon fill="black" stroke="black" points="727.69,-10.63 719.06,-16.77 729.63,-17.35 727.69,-10.63"/>
<text text-anchor="middle" x="796.5" y="-15.98" font-family="Times,serif" font-size="14.00">counts / trends</text>
</g>
</g>
</svg>
