<?xml version="1.0" encoding="UTF-8" standalone="no"?>
<!DOCTYPE svg PUBLIC "-//W3C//DTD SVG 1.1//EN"
 "http://www.w3.org/Graphics/SVG/1.1/DTD/svg11.dtd">
<!-- Generated by graphviz version 2.42.4 (0)
 -->
<!-- Title: G Pages: 1 -->
<svg width="693pt" height="88pt"
 viewBox="0.00 0.00 693.20 88.30" xmlns="http://www.w3.org/2000/svg" xmlns:xlink="http://www.w3.org/1999/xlink">
<g id="graph0" class="graph" transform="scale(1 1) rotate(0) translate(21.6 66.7)">
<title>G</title>
<polygon fill="white" stroke="transparent" points="-21.6,21.6 -21.6,-66.7 671.6,-66.7 671.6,21.6 -21.6,21.6"/>
<!-- Client -->
<g id="node1" class="node">
<title>Client</title>
<path fill="#eef6f6" stroke="black" d="M42,-45.1C42,-45.1 12,-45.1 12,-45.1 6,-45.1 0,-39.1 0,-33.1 0,-33.1 0,-21.1 0,-21.1 0,-15.1 6,-9.1 12,-9.1 12,-9.1 42,-9.1 42,-9.1 48,-9.1 54,-15.1 54,-21.1 54,-21.1 54,-33.1 54,-33.1 54,-39.1 48,-45.1 42,-45.1"/>
<text text-anchor="middle" x="27" y="-23.4" font-family="Arial" font-size="14.00">Client</text>
</g>
<!-- API -->
<g id="node2" class="node">
<title>API</title>
<path fill="#eef6f6" stroke="black" d="M252,-45.1C252,-45.1 222,-45.1 222,-45.1 216,-45.1 210,-39.1 210,-33.1 210,-33.1 210,-21.1 210,-21.1 210,-15.1 216,-9.1 222,-9.1 222,-9.1 252,-9.1 252,-9.1 258,-9.1 264,-15.1 264,-21.1 264,-21.1 264,-33.1 264,-33.1 264,-39.1 258,-45.1 252,-45.1"/>
<text text-anchor="middle" x="237" y="-23.4" font-family="Arial" font-size="14.00">API</text>
</g>
<!-- Client&#45;&gt;API -->
<g id="edge1" class="edge">
<title>Client&#45;&gt;API</title>
<path fill="none" stroke="black" d="M54.34,-27.1C91.15,-27.1 158.1,-27.1 199.64,-27.1"/>
<polygon fill="black" stroke="black" points="199.87,-30.6 209.87,-27.1 199.87,-23.6 199.87,-30.6"/>
<text text-anchor="middle" x="132" y="-30.9" font-family="Times,serif" font-size="14.00">login credentials</text>
</g>
<!-- API&#45;&gt;Client -->
<g id="edge6" class="edge">
<title>API&#45;&gt;Client</title>
<path fill="none" stroke="black" d="M209.58,-13.64C203.91,-11.34 197.87,-9.31 192,-8.1 139.77,2.7 124.23,2.7 72,-8.1 69.34,-8.65 66.65,-9.36 63.97,-10.2"/>
<polygon fill="black" stroke="black" points="62.64,-6.95 54.42,-13.64 65.02,-13.54 62.64,-6.95"/>
<text text-anchor="middle" x="132" y="-11.9" font-family="Times,serif" font-size="14.00">response</text>
</g>
<!-- Auth -->
<g id="node3" class="node">
<title>Auth</title>
<path fill="#eef6f6" stroke="black" d="M442,-45.1C442,-45.1 412,-45.1 412,-45.1 406,-45.1 400,-39.1 400,-33.1 400,-33.1 400,-21.1 400,-21.1 400,-15.1 406,-9.1 412,-9.1 412,-9.1 442,-9.1 442,-9.1 448,-9.1 454,-15.1 454,-21.1 454,-21.1 454,-33.1 454,-33.1 454,-39.1 448,-45.1 442,-45.1"/>
<text text-anchor="middle" x="427" y="-23.4" font-family="Arial" font-size="14.00">Auth</text>
</g>
<!-- API&#45;&gt;Auth -->
<g id="edge2" class="edge">
<title>API&#45;&gt;Auth</title>
<path fill="none" stroke="black" d="M264.14,-27.1C296.74,-27.1 352.65,-27.1 389.47,-27.1"/>
<polygon fill="black" stroke="black" points="389.78,-30.6 399.78,-27.1 389.78,-23.6 389.78,-30.6"/>
<text text-anchor="middle" x="332" y="-30.9" font-family="Times,serif" font-size="14.00">authenticate</text>
</g>
<!-- Auth&#45;&gt;API -->
<g id="edge5" class="edge">
<title>Auth&#45;&gt;API</title>
<path fill="none" stroke="black" d="M399.58,-13.64C393.91,-11.34 387.87,-9.31 382,-8.1 338.48,0.9 325.52,0.9 282,-8.1 279.34,-8.65 276.65,-9.36 273.97,-10.2"/>
<polygon fill="black" stroke="black" points="272.64,-6.95 264.42,-13.64 275.02,-13.54 272.64,-6.95"/>
<text text-anchor="middle" x="332" y="-11.9" font-family="Times,serif" font-size="14.00">token / failure</text>
</g>
<!-- UserStore -->
<g id="node4" class="node">
<title>UserStore</title>
<path fill="#eef6f6" stroke="black" d="M638,-45.1C638,-45.1 585,-45.1 585,-45.1 579,-45.1 573,-39.1 573,-33.1 573,-33.1 573,-21.1 573,-21.1 573,-15.1 579,-9.1 585,-9.1 585,-9.1 638,-9.1 638,-9.1 644,-9.1 650,-15.1 650,-21.1 650,-21.1 650,-33.1 650,-33.1 650,-39.1 644,-45.1 638,-45.1"/>
<text text-anchor="middle" x="611.5" y="-23.4" font-family="Arial" font-size="14.00">UserStore</text>
</g>
<!-- Auth&#45;&gt;UserStore -->
<g id="edge3" class="edge">
<title>Auth&#45;&gt;UserStore</title>
<path fill="none" stroke="black" d="M454.15,-27.1C482.37,-27.1 527.94,-27.1 562.62,-27.1"/>
<polygon fill="black" stroke="black" points="563,-30.6 573,-27.1 563,-23.6 563,-30.6"/>
<text text-anchor="middle" x="513.5" y="-30.9" font-family="Times,serif" font-size="14.00">load user</text>
</g>
<!-- UserStore&#45;&gt;Auth -->
<g id="edge4" class="edge">
<title>UserStore&#45;&gt;Auth</title>
<path fill="none" stroke="black" d="M572.71,-12.32C566.86,-10.57 560.83,-9.07 555,-8.1 518.61,-2.04 508.13,-0.63 472,-8.1 469.34,-8.65 466.65,-9.36 463.97,-10.2"/>
<polygon fill="black" stroke="black" points="462.64,-6.95 454.42,-13.64 465.02,-13.54 462.64,-6.95"/>
<text text-anchor="middle" x="513.5" y="-11.9" font-family="Times,serif" font-size="14.00">user record</text>
</g>
</g>
</svg>
