<?xml version="1.0" encoding="UTF-8" standalone="no"?>
<!DOCTYPE svg PUBLIC "-//W3C//DTD SVG 1.1//EN"
 "http://www.w3.org/Graphics/SVG/1.1/DTD/svg11.dtd">
<!-- Generated by graphviz version 2.42.4 (0)
 -->
<!-- Title: G Pages: 1 -->
<svg width="1075pt" height="201pt"
 viewBox="0.00 0.00 1075.20 200.75" xmlns="http://www.w3.org/2000/svg" xmlns:xlink="http://www.w3.org/1999/xlink">
<g id="graph0" class="graph" transform="scale(1 1) rotate(0) translate(21.6 179.15)">
<title>G</title>
<polygon fill="white" stroke="transparent" points="-21.6,21.6 -21.6,-179.15 1053.6,-179.15 1053.6,21.6 -21.6,21.6"/>
<!-- Submitted -->
<g id="node1" class="node">
<title>Submitted</title>
<path fill="#eef6f6" stroke="#3b6666" d="M66,-65.55C66,-65.55 12,-65.55 12,-65.55 6,-65.55 0,-59.55 0,-53.55 0,-53.55 0,-41.55 0,-41.55 0,-35.55 6,-29.55 12,-29.55 12,-29.55 66,-29.55 66,-29.55 72,-29.55 78,-35.55 78,-41.55 78,-41.55 78,-53.55 78,-53.55 78,-59.55 72,-65.55 66,-65.55"/>
<text text-anchor="middle" x="39" y="-43.85" font-family="Arial" font-size="14.00">Submitted</text>
</g>
<!-- Validated -->
<g id="node2" class="node">
<title>Validated</title>
<path fill="#eef6f6" stroke="#3b6666" d="M302,-103.55C302,-103.55 254,-103.55 254,-103.55 248,-103.55 242,-97.55 242,-91.55 242,-91.55 242,-79.55 242,-79.55 242,-73.55 248,-67.55 254,-67.55 254,-67.55 302,-67.55 302,-67.55 308,-67.55 314,-73.55 314,-79.55 314,-79.55 314,-91.55 314,-91.55 314,-97.55 308,-103.55 302,-103.55"/>
<text text-anchor="middle" x="278" y="-81.85" font-family="Arial" font-size="14.00">Validated</text>
</g>
<!-- Submitted&#45;&gt;Validated -->
<g id="edge1" class="edge">
<title>Submitted&#45;&gt;Validated</title>
<path fill="none" stroke="black" d="M78.16,-56.89C84.11,-58.21 90.21,-59.48 96,-60.55 141.85,-69.02 194.72,-76 231.43,-80.42"/>
<polygon fill="black" stroke="black" points="231.47,-83.95 241.81,-81.65 232.29,-76.99 231.47,-83.95"/>
<text text-anchor="middle" x="160" y="-82.35" font-family="Times,serif" font-size="14.00">validation passed</text>
</g>
<!-- Rejected -->
<g id="node3" class="node">
<title>Rejected</title>
<path fill="#eef6f6" stroke="#3b6666" d="M301,-38.55C301,-38.55 255,-38.55 255,-38.55 249,-38.55 243,-32.55 243,-26.55 243,-26.55 243,-14.55 243,-14.55 243,-8.55 249,-2.55 255,-2.55 255,-2.55 301,-2.55 301,-2.55 307,-2.55 313,-8.55 313,-14.55 313,-14.55 313,-26.55 313,-26.55 313,-32.55 307,-38.55 301,-38.55"/>
<text text-anchor="middle" x="278" y="-16.85" font-family="Arial" font-size="14.00">Rejected</text>
</g>
<!-- Submitted&#45;&gt;Rejected -->
<g id="edge2" class="edge">
<title>Submitted&#45;&gt;Rejected</title>
<path fill="none" stroke="black" d="M78.08,-43.21C120.32,-38.4 188.39,-30.64 232.91,-25.57"/>
<polygon fill="black" stroke="black" points="233.32,-29.05 242.86,-24.44 232.53,-22.09 233.32,-29.05"/>
<text text-anchor="middle" x="160" y="-45.35" font-family="Times,serif" font-size="14.00">validation failed</text>
</g>
<!-- Processing -->
<g id="node4" class="node">
<title>Processing</title>
<path fill="#eef6f6" stroke="#3b6666" d="M474,-103.55C474,-103.55 415,-103.55 415,-103.55 409,-103.55 403,-97.55 403,-91.55 403,-91.55 403,-79.55 403,-79.55 403,-73.55 409,-67.55 415,-67.55 415,-67.55 474,-67.55 474,-67.55 480,-67.55 486,-73.55 486,-79.55 486,-79.55 486,-91.55 486,-91.55 486,-97.55 480,-103.55 474,-103.55"/>
<text text-anchor="middle" x="444.5" y="-81.85" font-family="Arial" font-size="14.00">Processing</text>
</g>
<!-- Validated&#45;&gt;Processing -->
<g id="edge3" class="edge">
<title>Validated&#45;&gt;Processing</title>
<path fill="none" stroke="black" d="M314.29,-85.55C337.11,-85.55 367.18,-85.55 392.57,-85.55"/>
<polygon fill="black" stroke="black" points="392.76,-89.05 402.76,-85.55 392.76,-82.05 392.76,-89.05"/>
<text text-anchor="middle" x="358.5" y="-89.35" font-family="Times,serif" font-size="14.00">eligible</text>
</g>
<!-- Rejected&#45;&gt;Submitted -->
<g id="edge8" class="edge">
<title>Rejected&#45;&gt;Submitted</title>
<path fill="none" stroke="black" stroke-dasharray="5,2" d="M242.77,-11.02C205.7,-2.36 145.28,6.92 96,-8.55 86,-11.69 76.22,-17.32 67.7,-23.34"/>
<polygon fill="black" stroke="black" points="65.52,-20.6 59.65,-29.42 69.74,-26.19 65.52,-20.6"/>
<text text-anchor="middle" x="160" y="-12.35" font-family="Times,serif" font-size="14.00">corrected request</text>
</g>
<!-- Analyzed -->
<g id="node5" class="node">
<title>Analyzed</title>
<path fill="#eef6f6" stroke="#3b6666" d="M739,-157.55C739,-157.55 691,-157.55 691,-157.55 685,-157.55 679,-151.55 679,-145.55 679,-145.55 679,-133.55 679,-133.55 679,-127.55 685,-121.55 691,-121.55 691,-121.55 739,-121.55 739,-121.55 745,-121.55 751,-127.55 751,-133.55 751,-133.55 751,-145.55 751,-145.55 751,-151.55 745,-157.55 739,-157.55"/>
<text text-anchor="middle" x="715" y="-135.85" font-family="Arial" font-size="14.00">Analyzed</text>
</g>
<!-- Processing&#45;&gt;Analyzed -->
<g id="edge4" class="edge">
<title>Processing&#45;&gt;Analyzed</title>
<path fill="none" stroke="black" d="M486.19,-99.62C492.12,-101.42 498.19,-103.13 504,-104.55 560.06,-118.24 625.85,-128.25 668.65,-133.98"/>
<polygon fill="black" stroke="black" points="668.38,-137.47 678.75,-135.3 669.29,-130.53 668.38,-137.47"/>
<text text-anchor="middle" x="570.5" y="-132.35" font-family="Times,serif" font-size="14.00">prediction success</text>
</g>
<!-- ProcessingFailed -->
<g id="node6" class="node">
<title>ProcessingFailed</title>
<path fill="#eef6f6" stroke="#3b6666" d="M763,-103.55C763,-103.55 667,-103.55 667,-103.55 661,-103.55 655,-97.55 655,-91.55 655,-91.55 655,-79.55 655,-79.55 655,-73.55 661,-67.55 667,-67.55 667,-67.55 763,-67.55 763,-67.55 769,-67.55 775,-73.55 775,-79.55 775,-79.55 775,-91.55 775,-91.55 775,-97.55 769,-103.55 763,-103.55"/>
<text text-anchor="middle" x="715" y="-81.85" font-family="Arial" font-size="14.00">ProcessingFailed</text>
</g>
<!-- Processing&#45;&gt;ProcessingFailed -->
<g id="edge5" class="edge">
<title>Processing&#45;&gt;ProcessingFailed</title>
<path fill="none" stroke="black" d="M486.28,-85.55C528.28,-85.55 594.5,-85.55 644.73,-85.55"/>
<polygon fill="black" stroke="black" points="644.87,-89.05 654.87,-85.55 644.87,-82.05 644.87,-89.05"/>
<text text-anchor="middle" x="570.5" y="-89.35" font-family="Times,serif" font-size="14.00">prediction failure</text>
</g>
<!-- Visible -->
<g id="node7" class="node">
<title>Visible</title>
<path fill="#eef6f6" stroke="#3b6666" d="M1011,-157.55C1011,-157.55 979,-157.55 979,-157.55 973,-157.55 967,-151.55 967,-145.55 967,-145.55 967,-133.55 967,-133.55 967,-127.55 973,-121.55 979,-121.55 979,-121.55 1011,-121.55 1011,-121.55 1017,-121.55 1023,-127.55 1023,-133.55 1023,-133.55 1023,-145.55 1023,-145.55 1023,-151.55 1017,-157.55 1011,-157.55"/>
<text text-anchor="middle" x="995" y="-135.85" font-family="Arial" font-size="14.00">Visible</text>
</g>
<!-- Analyzed&#45;&gt;Visible -->
<g id="edge6" class="edge">
<title>Analyzed&#45;&gt;Visible</title>
<path fill="none" stroke="black" d="M751.21,-139.55C803.94,-139.55 902.99,-139.55 956.84,-139.55"/>
<polygon fill="black" stroke="black" points="956.98,-143.05 966.98,-139.55 956.98,-136.05 956.98,-143.05"/>
<text text-anchor="middle" x="866.5" y="-143.35" font-family="Times,serif" font-size="14.00">stored successfully</text>
</g>
<!-- Retryable -->
<g id="node8" class="node">
<title>Retryable</title>
<path fill="#eef6f6" stroke="#3b6666" d="M1020,-78.55C1020,-78.55 970,-78.55 970,-78.55 964,-78.55 958,-72.55 958,-66.55 958,-66.55 958,-54.55 958,-54.55 958,-48.55 964,-42.55 970,-42.55 970,-42.55 1020,-42.55 1020,-42.55 1026,-42.55 1032,-48.55 1032,-54.55 1032,-54.55 1032,-66.55 1032,-66.55 1032,-72.55 1026,-78.55 1020,-78.55"/>
<text text-anchor="middle" x="995" y="-56.85" font-family="Arial" font-size="14.00">Retryable</text>
</g>
<!-- ProcessingFailed&#45;&gt;Retryable -->
<g id="edge7" class="edge">
<title>ProcessingFailed&#45;&gt;Retryable</title>
<path fill="none" stroke="black" d="M775.3,-80.22C826.85,-75.58 900.49,-68.96 947.78,-64.71"/>
<polygon fill="black" stroke="black" points="948.09,-68.19 957.74,-63.81 947.47,-61.22 948.09,-68.19"/>
<text text-anchor="middle" x="866.5" y="-81.35" font-family="Times,serif" font-size="14.00">if policy allows retry</text>
</g>
<!-- Retryable&#45;&gt;Processing -->
<g id="edge9" class="edge">
<title>Retryable&#45;&gt;Processing</title>
<path fill="none" stroke="black" stroke-dasharray="5,2" d="M957.79,-55.2C895.69,-46.83 764.95,-32.64 655,-43.55 599.98,-49.01 538.01,-62.35 495.83,-72.54"/>
<polygon fill="black" stroke="black" points="494.97,-69.15 486.09,-74.93 496.63,-75.95 494.97,-69.15"/>
<text text-anchor="middle" x="715" y="-47.35" font-family="Times,serif" font-size="14.00">retry</text>
</g>
</g>
</svg>
